:FULLY-SPECIFIED
:DEGREES
1
root 9.40804 16.2753 -23.1469 3.4765 -0.781887 4.02471
lfemur -1.32549 0.360182 -29.408
ltibia 17.5774
lfoot -17.8831 6.30262
ltoes -0.751368
rfemur -34.8909 5.38813 14.4508
rtibia 41.286
rfoot -20.8412 -9.03251
rtoes -16.9412
lowerback -7.47953 -2.38137 -4.59302
upperback -0.392055 -2.86597 2.03457
thorax 4.12127 -1.52894 4.38403
lowerneck -20.4056 -5.01018 -13.0808
upperneck 20.2436 -5.70075 11.4525
head 10.5954 -2.31335 5.45953
lclavicle 2.36492e-14 5.56597e-15
lhumerus -20.5909 -23.1408 87.7094
lradius 37.2336
lwrist 10.6252
lhand -15.4531 -25.5062
lfingers 7.12502
lthumb 10.7278 4.19985
rclavicle 2.36492e-14 5.56597e-15
rhumerus -44.1059 11.408 -86.812
rradius 37.509
rwrist -21.4468
rhand -30.1924 -23.7337
rfingers 7.12502
rthumb -3.50325 -53.6846
2
root 9.41057 16.2821 -23.0203 3.34563 -0.424719 3.9985
lfemur 0.114999 0.335783 -29.3504
ltibia 16.0313
lfoot -17.4874 6.12436
ltoes -2.33178
rfemur -35.1227 5.65639 14.2057
rtibia 40.0531
rfoot -20.9101 -8.63349
rtoes -17.1608
lowerback -7.50775 -2.3467 -4.39157
upperback -0.307229 -2.82936 1.9018
thorax 4.20449 -1.50888 4.13265
lowerneck -20.2016 -5.16168 -12.9042
upperneck 20.1868 -5.93217 11.2101
head 10.5554 -2.43848 5.29874
lclavicle -1.81779e-14 -3.97569e-15
lhumerus -20.6278 -23.9553 87.7926
lradius 37.8326
lwrist 10.9509
lhand -15.7636 -25.9355
lfingers 7.12502
lthumb 10.4282 3.78584
rclavicle -1.81779e-14 -3.97569e-15
rhumerus -44.2958 10.917 -86.7534
rradius 37.5783
rwrist -21.1117
rhand -29.6592 -24.369
rfingers 7.12502
rthumb -2.98837 -54.3278
3
root 9.41057 16.2944 -22.8979 3.15454 0.0235091 3.90101
lfemur 1.61992 0.25422 -29.1801
ltibia 14.4519
lfoot -17.1536 5.66707
ltoes -2.37701
rfemur -35.2877 5.83656 14.0309
rtibia 38.7651
rfoot -20.8297 -8.26092
rtoes -16.5326
lowerback -7.37519 -2.41019 -4.19004
upperback -0.288292 -2.93543 1.88376
thorax 4.1497 -1.55656 3.99138
lowerneck -19.9545 -5.12402 -12.9514
upperneck 20.3143 -5.90799 11.217
head 10.5535 -2.4384 5.31809
lclavicle -2.37579e-14 1.59028e-15
lhumerus -20.7865 -24.2139 87.9549
lradius 38.3741
lwrist 11.1897
lhand -15.4116 -25.8125
lfingers 7.12502
lthumb 10.7677 3.89148
rclavicle -2.37579e-14 1.59028e-15
rhumerus -44.446 10.6554 -86.6336
rradius 37.4106
rwrist -20.8886
rhand -29.7089 -24.1501
rfingers 7.12502
rthumb -3.03638 -54.1082
4
root 9.40835 16.2885 -22.7704 3.11103 0.418267 4.1703
lfemur 2.96996 0.200622 -29.4038
ltibia 12.8944
lfoot -16.8588 5.22658
ltoes -2.44601
rfemur -35.6348 6.0455 13.4046
rtibia 37.4511
rfoot -20.7428 -7.70286
rtoes -18.0957
lowerback -7.35288 -2.51067 -4.47777
upperback -0.300898 -3.04275 1.80414
thorax 4.14608 -1.61423 4.05875
lowerneck -20.0919 -5.02939 -12.9716
upperneck 20.7625 -5.82945 11.3857
head 10.7375 -2.38382 5.4134
lclavicle -2.68421e-14 -7.15625e-15
lhumerus -20.8881 -24.5408 88.1076
lradius 38.8428
lwrist 11.6231
lhand -14.7896 -25.4409
lfingers 7.12502
lthumb 11.3677 4.231
rclavicle -2.68421e-14 -7.15625e-15
rhumerus -44.6835 10.6465 -86.6314
rradius 37.2153
rwrist -20.6089
rhand -30.3588 -24.5083
rfingers 7.12502
rthumb -3.66392 -54.4565
5
root 9.40721 16.2858 -22.6336 3.25703 0.703764 4.28065
lfemur 4.1714 0.248476 -29.4715
ltibia 11.3536
lfoot -16.5899 5.01912
ltoes -3.70528
rfemur -36.0977 6.47006 12.8636
rtibia 36.1616
rfoot -20.8148 -7.20441
rtoes -18.0283
lowerback -7.60856 -2.56373 -4.59216
upperback -0.298867 -3.08824 1.70666
thorax 4.2973 -1.64107 4.00606
lowerneck -20.3303 -4.97589 -12.599
upperneck 20.9933 -5.85499 11.3554
head 10.8571 -2.36289 5.34205
lclavicle -1.08959e-14 2.70347e-14
lhumerus -21.0849 -25.0509 88.2122
lradius 39.4854
lwrist 12.08
lhand -14.6804 -25.21
lfingers 7.12502
lthumb 11.473 4.45604
rclavicle -1.08959e-14 2.70347e-14
rhumerus -44.8185 10.454 -86.6629
rradius 37.0339
rwrist -20.4837
rhand -30.147 -24.2037
rfingers 7.12502
rthumb -3.4594 -54.1554
6
root 9.40737 16.2945 -22.498 3.52113 0.986836 4.00154
lfemur 5.25256 0.31682 -29.1039
ltibia 9.74187
lfoot -16.2577 4.77688
ltoes -3.89851
rfemur -36.6502 7.07626 12.6709
rtibia 34.9488
rfoot -20.8809 -7.12677
rtoes -17.2342
lowerback -7.88833 -2.60543 -4.34945
upperback -0.415482 -3.15836 1.80664
thorax 4.33223 -1.67016 3.95691
lowerneck -20.1694 -4.94507 -12.2974
upperneck 20.9115 -5.85047 11.0816
head 10.7761 -2.37195 5.18444
lclavicle 3.42966e-14 -2.54444e-14
lhumerus -21.6112 -25.6076 88.6104
lradius 40.2418
lwrist 12.5408
lhand -15.1416 -24.884
lfingers 7.12502
lthumb 11.0282 4.80632
rclavicle 3.42966e-14 -2.54444e-14
rhumerus -44.8845 10.254 -86.493
rradius 36.7597
rwrist -20.3694
rhand -29.7095 -23.4478
rfingers 7.12502
rthumb -3.03687 -53.4059
7
root 9.40429 16.2813 -22.3653 3.79038 1.25486 3.88478
lfemur 6.40705 0.388577 -28.8837
ltibia 7.85186
lfoot -15.6988 4.41042
ltoes -2.92848
rfemur -37.2847 7.59016 12.3308
rtibia 33.826
rfoot -20.9231 -7.15933
rtoes -18.8603
lowerback -8.16368 -2.65334 -4.2442
upperback -0.557652 -3.22445 1.87851
thorax 4.34321 -1.69871 3.95678
lowerneck -19.9784 -4.9499 -12.3686
upperneck 20.9691 -5.83978 10.995
head 10.7588 -2.38867 5.16774
lclavicle -7.04443e-15 1.19271e-14
lhumerus -22.0616 -25.9604 89.0212
lradius 40.7168
lwrist 12.8339
lhand -15.1844 -24.8507
lfingers 7.12502
lthumb 10.9869 4.84179
rclavicle -7.04443e-15 1.19271e-14
rhumerus -45.0386 10.1015 -86.3917
rradius 36.5192
rwrist -20.2164
rhand -30.0466 -23.5787
rfingers 7.12502
rthumb -3.3625 -53.532
8
root 9.39989 16.2567 -22.235 3.80583 1.64183 4.10824
lfemur 8.19997 0.363443 -29.0208
ltibia 5.30313
lfoot -14.8109 4.08802
ltoes -2.85827
rfemur -37.6788 7.91192 11.6497
rtibia 32.7932
rfoot -21.0359 -7.08005
rtoes -19.9287
lowerback -8.17832 -2.76316 -4.49656
upperback -0.588747 -3.34606 1.8548
thorax 4.34479 -1.76304 4.05865
lowerneck -20.014 -4.97433 -12.6585
upperneck 21.2408 -5.85383 11.2049
head 10.8843 -2.3953 5.30419
lclavicle 1.4884e-14 2.14687e-14
lhumerus -22.2938 -25.9287 89.3211
lradius 40.9782
lwrist 12.7884
lhand -14.896 -25.1086
lfingers 7.12502
lthumb 11.265 4.56888
rclavicle 1.4884e-14 2.14687e-14
rhumerus -45.3905 10.1124 -86.4358
rradius 36.5297
rwrist -19.9163
rhand -30.2595 -24.0008
rfingers 7.12502
rthumb -3.56803 -53.9507
9
root 9.39474 16.2455 -22.108 3.70266 1.96518 4.34965
lfemur 11.5659 0.412811 -29.1578
ltibia -3.18055e-14
lfoot -12.6419 3.67481
ltoes -3.54418
rfemur -37.9551 8.41086 10.889
rtibia 31.8672
rfoot -21.1815 -6.98954
rtoes -20.1912
lowerback -7.46111 -2.94966 -5.46199
upperback -0.98761 -3.57187 2.42561
thorax 3.64785 -1.87222 5.21582
lowerneck -20.0031 -4.94188 -13.1746
upperneck 21.7731 -5.57866 10.8145
head 11.0439 -2.36356 5.30657
lclavicle -3.34952e-14 1.03368e-14
lhumerus -23.2012 -25.2501 90.724
lradius 41.2493
lwrist 12.576
lhand -14.802 -25.1927
lfingers 7.12502
lthumb 11.3557 4.47988
rclavicle -3.34952e-14 1.03368e-14
rhumerus -46.4347 11.2572 -86.0029
rradius 36.8949
rwrist -19.9402
rhand -30.3596 -24.633
rfingers 7.12502
rthumb -3.66472 -54.5812
